<?xml version="1.0" encoding="UTF-8"?>
<svg width="28px" height="26px" viewBox="0 0 28 26" version="1.1" xmlns="http://www.w3.org/2000/svg" xmlns:xlink="http://www.w3.org/1999/xlink">
    <!-- Generator: Sketch 48.2 (47327) - http://www.bohemiancoding.com/sketch -->
    <title>Alerts_icon</title>
    <desc>Created with Sketch.</desc>
    <defs></defs>
    <g id="Mobile_BottomBar" stroke="none" stroke-width="1" fill="none" fill-rule="evenodd" transform="translate(-166.000000, -124.000000)">
        <g id="Bottom-buttons" transform="translate(0.000000, 108.000000)">
            <g id="Alerts_icon" transform="translate(166.000000, 16.000000)">
                <g>
                    <path d="M16.6285399,1.56564997 L27.6193628,21.5545542 C28.4176605,23.0064105 27.8878465,24.8305208 26.4359902,25.6288184 C25.9931316,25.8723225 25.4959333,26 24.9905443,26 L3.00889857,26 C1.35204432,26 0.00889857401,24.6568542 0.00889857401,23 C0.00889857401,22.4946111 0.136576028,21.9974128 0.380080131,21.5545542 L11.370903,1.56564997 C12.1692007,0.113793632 13.9933109,-0.416020342 15.4451673,0.382277337 C15.9438899,0.6564981 16.3543191,1.0669273 16.6285399,1.56564997 Z" id="Triangle" fill="#FFFFFF"></path>
                    <polygon id="!" fill="#0B0C0C" points="12 7 16 7 16 17 12 17"></polygon>
                    <path d="M12,20.9895288 C12,20.7172761 12.0522188,20.4607342 12.156658,20.2198953 C12.2610971,19.9790564 12.4055691,19.7678892 12.5900783,19.5863874 C12.7745875,19.4048857 12.9886846,19.2617806 13.232376,19.1570681 C13.4760674,19.0523555 13.7371614,19 14.0156658,19 C14.2872076,19 14.5430797,19.0523555 14.7832898,19.1570681 C15.0234999,19.2617806 15.2341157,19.4048857 15.4151436,19.5863874 C15.5961715,19.7678892 15.7389029,19.9790564 15.843342,20.2198953 C15.9477812,20.4607342 16,20.7172761 16,20.9895288 C16,21.2687623 15.9477812,21.5305398 15.843342,21.7748691 C15.7389029,22.0191984 15.5961715,22.2321108 15.4151436,22.4136126 C15.2341157,22.5951143 15.0234999,22.7382194 14.7832898,22.8429319 C14.5430797,22.9476445 14.2872076,23 14.0156658,23 C13.7371614,23 13.4760674,22.9476445 13.232376,22.8429319 C12.9886846,22.7382194 12.7745875,22.5951143 12.5900783,22.4136126 C12.4055691,22.2321108 12.2610971,22.0191984 12.156658,21.7748691 C12.0522188,21.5305398 12,21.2687623 12,20.9895288 Z" id="!" fill="#0B0C0C"></path>
                </g>
            </g>
        </g>
    </g>
</svg>