<?xml version="1.0" encoding="UTF-8"?>
<svg width="28px" height="28px" viewBox="0 0 28 28" version="1.1" xmlns="http://www.w3.org/2000/svg" xmlns:xlink="http://www.w3.org/1999/xlink">
    <!-- Generator: Sketch 48.2 (47327) - http://www.bohemiancoding.com/sketch -->
    <title>KeyDates_icon</title>
    <desc>Created with Sketch.</desc>
    <defs></defs>
    <g id="Mobile_BottomBar" stroke="none" stroke-width="1" fill="none" fill-rule="evenodd" transform="translate(-311.000000, -122.000000)">
        <g id="Bottom-buttons" transform="translate(0.000000, 108.000000)">
            <g id="KeyDates_icon" transform="translate(311.000000, 14.000000)">
                <g>
                    <path d="M7,4 L7,2 C7,0.666666667 7.33333333,0 8,0 C8.66666667,0 9,0.666666667 9,2 L9,4 C9,5.33333333 8.66666667,6 8,6 C7.33333333,6 7,5.33333333 7,4 Z" id="Path" fill="#FFFFFF"></path>
                    <path d="M19,4 L19,2 C19,0.666666667 19.3333333,0 20,0 C20.6666667,0 21,0.666666667 21,2 L21,4 C21,5.33333333 20.6666667,6 20,6 C19.3333333,6 19,5.33333333 19,4 Z" id="Path" fill="#FFFFFF"></path>
                    <path d="M28,28 L0,28 L0,4 L6,4 C6,5.72291667 6.346,7 8,7 C9.654,7 10,5.72291667 10,4 L18,4 C18,5.72291667 18.346,7 20,7 C21.654,7 22,5.72291667 22,4 L28,4 L28,28 Z" id="Path" fill="#FFFFFF"></path>
                    <polygon id="Path" fill="#0B0C0C" points="2 26 26 26 26 9 2 9"></polygon>
                    <g id="Group-2" transform="translate(1.000000, 9.000000)" fill="#FFFFFF">
                        <rect id="Rectangle" x="5.68434189e-14" y="4" width="26" height="1"></rect>
                        <rect id="Rectangle" x="5.68434189e-14" y="0" width="26" height="1"></rect>
                        <rect id="Rectangle" x="5.68434189e-14" y="8" width="26" height="1"></rect>
                        <rect id="Rectangle" x="5.68434189e-14" y="12" width="26" height="1"></rect>
                        <rect id="Rectangle" x="5.68434189e-14" y="16" width="26" height="1"></rect>
                        <rect id="Rectangle-10" x="5" y="0" width="1" height="18"></rect>
                        <rect id="Rectangle-10" x="10" y="0" width="1" height="18"></rect>
                        <rect id="Rectangle-10" x="15" y="0" width="1" height="18"></rect>
                        <rect id="Rectangle-10" x="20" y="0" width="1" height="18"></rect>
                        <rect id="Rectangle-10" x="5.68434189e-14" y="0" width="1" height="18"></rect>
                    </g>
                    <polygon id="Path" fill="#FFFFFF" points="23.0005349 24 25.0005349 24 25.0005349 23 23.0005349 23"></polygon>
                    <polygon id="Path" fill="#FFFFFF" points="18.0005349 24 20.0005349 24 20.0005349 23 18.0005349 23"></polygon>
                    <polygon id="Path" fill="#FFFFFF" points="3.00053486 12 5.00053486 12 5.00053486 11 3.00053486 11"></polygon>
                </g>
            </g>
        </g>
    </g>
</svg>