<?xml version="1.0" encoding="UTF-8"?>
<svg width="40px" height="40px" viewBox="0 0 40 40" version="1.1" xmlns="http://www.w3.org/2000/svg" xmlns:xlink="http://www.w3.org/1999/xlink">
    <!-- Generator: Sketch 47 (45396) - http://www.bohemiancoding.com/sketch -->
    <title>Syscon_logo</title>
    <desc>Created with Sketch.</desc>
    <defs>
        <polygon id="path-1" points="39.8104615 39.9999179 39.8104615 0.190071795 5.56001114e-21 0.190071795 0 39.9999179"></polygon>
    </defs>
    <g id="Page-1" stroke="none" stroke-width="1" fill="none" fill-rule="evenodd">
        <g id="Syscon-header-bars" transform="translate(-92.000000, -54.000000)">
            <g id="Syscon_logo" transform="translate(92.000000, 54.000000)">
                <path d="M2,20.0024485 C2,10.0591503 10.0593726,2 20.0011222,2 C29.9375669,2 38,10.0591503 38,20.0024485 C38,29.9390133 29.9375669,38 20.0011222,38 C10.0593726,38 2,29.9390133 2,20.0024485" id="Fill-1" fill="#FEFEFE"></path>
                <path d="M24.1185291,23.9490381 L25.9225856,16.506754 L26.0828325,17.0767499 L28.0450893,23.9490381 L24.1185291,23.9490381 Z M15.9987397,23.9490381 L12.0711562,23.9490381 L14.0364829,17.0767499 L14.1977531,16.506754 L15.9987397,23.9490381 Z M26.0828325,15.3714695 L22.0240634,15.0272206 C20.7715591,14.0832992 20.7521166,12.9349161 20.0587367,10.9629554 C19.3641289,12.9349161 19.3469377,14.0832992 18.0942287,15.0272206 L14.0364829,15.3714695 L13.9548245,15.3778142 L11.491566,23.9381907 C11.491566,23.9381907 12.5109653,25.4607041 14.0182684,25.3381089 L14.0364829,25.3381089 C14.7988324,25.3941875 16.2224305,25.0047073 16.57833,23.9490381 L14.6537302,16.03377 L18.2006506,16.506754 L18.0942287,16.7863283 C19.0683987,18.4271388 19.6510588,21.0908719 20.0587367,23.000614 C20.4705078,21.0908719 21.0521446,18.4271388 22.0240634,16.7863283 L21.9153902,16.506754 L25.4657899,16.03377 L23.54119,23.9490381 C23.8958616,25.0047073 25.3194597,25.3941875 26.0828325,25.3381089 L26.0990004,25.3381089 C27.6085547,25.4607041 28.6267261,23.9381907 28.6267261,23.9381907 L26.1624443,15.3778142 L26.0828325,15.3714695 Z M20.0026605,38.0558739 C10.0305155,38.0558739 1.94613197,29.9703234 1.94613197,20.0034793 C1.94613197,10.0296766 10.0305155,1.94617274 20.0026605,1.94617274 C29.9696891,1.94617274 38.0569379,10.0296766 38.0569379,20.0034793 C38.0569379,29.9703234 29.9696891,38.0558739 20.0026605,38.0558739 L20.0026605,38.0558739 Z M20.0026605,1 C9.50782007,1 1,9.50920999 1,20.0034793 C1,30.4948833 9.50782007,39 20.0026605,39 C30.4929986,39 39,30.4948833 39,20.0034793 C39,9.50920999 30.4929986,1 20.0026605,1 L20.0026605,1 Z M20.0026605,30.1164552 C14.4150994,30.1164552 9.88643659,25.5875972 9.88643659,20.0034793 C9.88643659,14.4164961 14.4150994,9.88559149 20.0026605,9.88559149 C25.5861285,9.88559149 30.1170426,14.4164961 30.1170426,20.0034793 C30.1170426,25.5875972 25.5861285,30.1164552 20.0026605,30.1164552 L20.0026605,30.1164552 Z M20.0026605,8.94371674 C13.8936319,8.94371674 8.94235119,13.8939828 8.94235119,20.0034793 C8.94235119,26.1058125 13.8936319,31.0583299 20.0026605,31.0583299 C26.1043215,31.0583299 31.0545789,26.1058125 31.0545789,20.0034793 C31.0545789,13.8939828 26.1043215,8.94371674 20.0026605,8.94371674 L20.0026605,8.94371674 Z" id="Fill-3" fill="#FDBD10"></path>
                <g id="Group-7">
                    <mask id="mask-2" fill="white">
                        <use xlink:href="#path-1"></use>
                    </mask>
                    <g id="Clip-6"></g>
                    <path d="M21.9182564,34.4134564 C21.6940513,34.3184821 21.4710769,34.2259692 21.2470769,34.1332513 C21.012,34.0298667 20.8837949,33.9113026 20.8739487,33.777559 C20.8643077,33.6698667 20.9043077,33.5771487 20.9935385,33.4950974 C21.0842051,33.4155077 21.189641,33.3701744 21.3082051,33.3574564 C21.5886154,33.3336615 21.7867692,33.4587897 21.9020513,33.7387897 L21.9871795,33.7279179 L22.068,33.2194051 C21.9387692,33.1613538 21.8083077,33.1201231 21.6876923,33.0942769 C21.5648205,33.0684308 21.4386667,33.0620718 21.3082051,33.0749949 C21.0335385,33.0965333 20.8019487,33.2021744 20.6208205,33.3874051 C20.4214359,33.5771487 20.3340513,33.8165333 20.3568205,34.0879179 C20.3761026,34.3229949 20.5053333,34.516841 20.748,34.6741744 C20.7996923,34.7108923 21.0228718,34.8165333 21.4097436,34.988841 C21.642359,35.0944821 21.7652308,35.2042256 21.7738462,35.3164308 C21.7836923,35.4306872 21.7447179,35.5383795 21.6585641,35.6333538 C21.5691282,35.7303795 21.4612308,35.7798154 21.3299487,35.7929436 C21.1713846,35.8056615 21.0249231,35.777559 20.8881026,35.7045333 C20.757641,35.6267897 20.6725128,35.5147897 20.6337436,35.3640205 L20.54,35.3703795 C20.5486154,35.460841 20.54,35.5837128 20.5207179,35.7430974 C20.5121026,35.7929436 20.5022564,35.8682256 20.4913846,35.9673026 C20.7685128,36.0686359 21.0626667,36.1117128 21.3761026,36.0817641 C21.6831795,36.0557128 21.9215385,35.9414564 22.0930256,35.7453538 C22.2706667,35.5342769 22.3451282,35.2583795 22.3157949,34.9262769 C22.2965128,34.7195077 22.1660513,34.5469949 21.9182564,34.4134564 L21.9182564,34.4134564 Z M26.0058462,25.4323282 L25.989641,25.4323282 C25.2245128,25.4883282 23.797641,25.0981744 23.4421538,24.0401231 L25.3711795,16.1067897 L21.8126154,16.5810462 L21.9215385,16.8612513 C20.9473846,18.5057641 20.3644103,21.1755077 19.9516923,23.089559 C19.5430769,21.1755077 18.9590769,18.5057641 17.9826667,16.8612513 L18.0893333,16.5810462 L14.5342564,16.1067897 L16.4632821,24.0401231 C16.1065641,25.0981744 14.6796923,25.4883282 13.9155897,25.4323282 L13.8973333,25.4323282 C12.3865641,25.5549949 11.3648205,24.0292513 11.3648205,24.0292513 L13.8337436,15.449559 L13.9155897,15.4432 L17.9826667,15.0981744 C19.2382564,14.1521231 19.2554872,13.0011487 19.9516923,11.0245333 C20.6466667,13.0011487 20.6661538,14.1521231 21.9215385,15.0981744 L25.989641,15.4432 L26.0694359,15.449559 L28.5393846,24.0292513 C28.5393846,24.0292513 27.5188718,25.5549949 26.0058462,25.4323282 L26.0058462,25.4323282 Z M30.0331282,20.0854564 C30.0331282,14.4860718 25.4917949,9.94494359 19.8954872,9.94494359 C14.2950769,9.94494359 9.756,14.4860718 9.756,20.0854564 C9.756,25.6823795 14.2950769,30.2212513 19.8954872,30.2212513 C25.4917949,30.2212513 30.0331282,25.6823795 30.0331282,20.0854564 L30.0331282,20.0854564 Z M11.8033846,30.4626872 L10.0608205,32.7796103 L10.6794872,33.2473026 L12.4284103,30.9326359 L11.8033846,30.4626872 Z M15.6636923,35.5664821 L17.3242051,35.9178667 L17.3242051,35.7539692 L17.4072821,35.5342769 L16.4589744,35.3919179 L16.6690256,34.4025846 L17.5775385,34.6073026 L17.6573333,34.2345846 L16.7412308,34.0706872 L16.9213333,33.2280205 L17.8468718,33.4587897 C17.8351795,33.3962256 17.8351795,33.3316103 17.8501538,33.2645333 C17.8630769,33.1999179 17.8889231,33.1355077 17.9289231,33.0749949 L16.2692308,32.7236103 L15.6636923,35.5664821 Z M25.1404103,32.1418667 L24.6694359,32.2969436 L24.5090256,33.6202256 L23.5756923,32.6526359 L22.7393846,32.9219692 L24.1391795,34.193559 L24.5348718,35.404841 L25.2202051,35.1806359 L24.818359,33.9564308 L25.1404103,32.1418667 Z M15.0548718,32.2776615 C14.9307692,32.1804308 14.7992821,32.100841 14.6462564,32.0360205 C14.2046154,31.8507897 13.796,31.8054564 13.4091282,31.9047385 C12.9758974,32.0146872 12.6645128,32.2989949 12.4694359,32.7537641 C12.2786667,33.2107897 12.2819487,33.6267897 12.485641,34.0040205 C12.6645128,34.3379692 12.9619487,34.5923282 13.3789744,34.7689436 C13.5276923,34.8360205 13.6753846,34.8834051 13.8175385,34.9156103 C13.9566154,34.9500718 14.0987692,34.9673026 14.2388718,34.9632 L14.5116923,34.6399179 L14.4749744,34.5794051 C14.3381538,34.6204308 14.196,34.6462769 14.0546667,34.6505846 C13.9112821,34.6548923 13.7810256,34.6331487 13.6688205,34.5857641 C13.3951795,34.4694564 13.2109744,34.2667897 13.1106667,33.9759179 C13.0158974,33.6870974 13.0321026,33.3874051 13.162359,33.0749949 C13.2895385,32.7732513 13.4835897,32.5467897 13.7367179,32.3960205 C14.0158974,32.2323282 14.2950769,32.2085333 14.5795897,32.3314051 C14.7131282,32.3853538 14.8177436,32.4715077 14.898359,32.5835077 C14.9771282,32.6998154 15.0181538,32.833559 15.0255385,32.9843282 L15.1184615,33.0233026 L15.4007179,32.6331487 C15.2950769,32.4907897 15.1797949,32.3765333 15.0548718,32.2776615 L15.0548718,32.2776615 Z M27.6977436,32.2840205 C27.4540513,32.2903795 27.2138462,32.2969436 26.973641,32.3033026 C26.7137436,32.305559 26.5510769,32.2473026 26.4831795,32.1266872 C26.4314872,32.0339692 26.4314872,31.9348923 26.4798974,31.8204308 C26.5328205,31.7084308 26.6081026,31.6265846 26.7137436,31.5662769 C26.9584615,31.4304821 27.1890256,31.4672 27.4099487,31.6719179 L27.4844103,31.6329436 L27.349641,31.1309949 C27.2042051,31.1309949 27.0737436,31.1459692 26.9518974,31.1740718 C26.8290256,31.1999179 26.7116923,31.2452513 26.5984615,31.3096615 C26.356,31.4434051 26.1877949,31.628841 26.092,31.8723282 C25.989641,32.1330462 26.0058462,32.3787897 26.141641,32.6202256 C26.253641,32.8249436 26.4509744,32.9498667 26.7352821,32.9974564 C26.7968205,33.0081231 27.0415385,33.0146872 27.4671795,33.0167385 C27.7246154,33.0212513 27.877641,33.0684308 27.9326154,33.1677128 C27.9908718,33.2713026 27.9962051,33.3833026 27.9541538,33.5039179 C27.9141538,33.6267897 27.8357949,33.7195077 27.7246154,33.7841231 C27.5822564,33.8596103 27.4357949,33.8918154 27.2837949,33.8809436 C27.1297436,33.8659692 27.0089231,33.7970462 26.9121026,33.6741744 L26.8259487,33.7195077 C26.8690256,33.7993026 26.9174359,33.9154051 26.9617436,34.0684308 C26.9767179,34.1137641 27.0015385,34.1869949 27.0261538,34.2840205 C27.3215385,34.2647385 27.6050256,34.1806359 27.8796923,34.0298667 C28.1492308,33.8809436 28.324,33.6807385 28.3982564,33.4284308 C28.4747692,33.1654564 28.4327179,32.8832 28.2700513,32.5880205 C28.1707692,32.4091487 27.9822564,32.305559 27.6977436,32.2840205 L27.6977436,32.2840205 Z M19.8954872,39.1250462 C9.37651282,39.1250462 0.849128205,30.6007385 0.849128205,20.0854564 C0.849128205,9.56771282 9.37651282,1.03930256 19.8954872,1.03930256 C30.4099487,1.03930256 38.9365128,9.56771282 38.9365128,20.0854564 C38.9365128,30.6007385 30.4099487,39.1250462 19.8954872,39.1250462 L19.8954872,39.1250462 Z M19.9053333,0.190071795 L19.8954872,0.190071795 C8.90553846,0.196430769 -0.000102564103,9.10637949 -0.000102564103,20.0940718 C-0.000102564103,31.0836103 8.90553846,39.993559 19.8954872,39.9999179 L19.9053333,39.9999179 C30.898359,39.9999179 39.8105641,31.0877128 39.8105641,20.0940718 C39.8105641,9.10207179 30.898359,0.190071795 19.9053333,0.190071795 L19.9053333,0.190071795 Z M34.9340513,21.0446359 C34.7326154,21.0144821 34.5375385,21.1049436 34.3490256,21.3156103 C34.2066667,21.5117128 34.0655385,21.7080205 33.9276923,21.9061744 C33.7734359,22.1131487 33.6302564,22.2101744 33.4934359,22.1906872 C33.3898462,22.1757128 33.3047179,22.1131487 33.2485128,22.009559 C33.1861538,21.9041231 33.1668718,21.7898667 33.1828718,21.6713026 C33.2238974,21.3931487 33.3898462,21.2296615 33.6883077,21.1777641 L33.6991795,21.0963282 L33.2195897,20.9002256 C33.1311795,21.0144821 33.0665641,21.1307897 33.0138462,21.2423795 C32.9598974,21.3586872 32.9242051,21.4795077 32.908,21.6046359 C32.8704615,21.8803282 32.9178462,22.1262769 33.0558974,22.3482256 C33.2013333,22.5851487 33.4083077,22.7232 33.6819487,22.7619692 C33.9114872,22.7941744 34.1324103,22.7100718 34.3381538,22.5096615 C34.3855385,22.4708923 34.5375385,22.2811487 34.7941538,21.9406359 C34.9535385,21.7359179 35.084,21.6432 35.1927179,21.6583795 C35.3123077,21.6756103 35.4072821,21.7359179 35.4774359,21.8458667 C35.5539487,21.9492513 35.5775385,22.0700718 35.562359,22.1952 C35.5418462,22.356841 35.4751795,22.4924308 35.3738462,22.6089436 C35.2704615,22.7186872 35.1443077,22.7769436 34.9857436,22.7812513 L34.9738462,22.8739692 C35.0591795,22.8870974 35.1797949,22.921559 35.3307692,22.9750974 C35.3769231,22.9925333 35.4470769,23.0183795 35.5418462,23.052841 C35.7047179,22.8093538 35.8091282,22.5312 35.8534359,22.2210462 C35.8944615,21.9127385 35.8382564,21.6563282 35.684,21.4470974 C35.5225641,21.2228923 35.2704615,21.0899692 34.9340513,21.0446359 L34.9340513,21.0446359 Z M29.7851282,29.4390974 L29.5104615,29.1330462 L27.8357949,30.6395077 L28.1125128,30.945559 L28.6491282,30.4023795 L30.3443077,32.2840205 L30.908,31.7773538 L29.2138462,29.8959179 L29.7851282,29.4390974 Z M33.1043077,28.5984821 L32.5923077,29.4089436 L31.7734359,28.8116103 L32.3295385,28.0682256 L32.0202051,27.8442256 L31.4963077,28.6114051 L30.8013333,28.1069949 L31.3908718,27.3525333 C31.3283077,27.3398154 31.2657436,27.3096615 31.2140513,27.2727385 C31.1590769,27.2341744 31.1127179,27.1822769 31.0706667,27.1219692 L30.0751795,28.4971487 L32.4243077,30.2062769 L33.4232821,28.8313026 L33.2778462,28.7666872 L33.1043077,28.5984821 Z M32.4124103,24.2058667 L33.8995897,25.7039179 L31.7916923,25.7338667 L31.5859487,26.2555077 C32.1010256,26.5508923 32.3779487,26.7125333 32.4243077,26.7363282 C32.4716923,26.7619692 32.7529231,26.9281231 33.2811282,27.2364308 C33.6991795,27.4842256 33.981641,27.6479179 34.1225641,27.7320205 L34.2874872,27.3312 L32.5849231,26.4432 L34.6659487,26.393559 L34.7822564,26.0983795 L33.3155897,24.5962256 L35.1615385,25.1607385 L35.4567179,24.4278154 L32.6234872,23.6715077 L32.4124103,24.2058667 Z M12.4694359,9.83930256 L13.4015385,9.25961026 L12.485641,7.79602051 L12.3088205,5.31314872 L11.6083077,5.75068718 L11.8033846,7.33489231 L10.4413333,6.48340513 L9.31312821,7.18617436 L11.5707692,8.3952 L12.4694359,9.83930256 Z M14.2950769,5.46843077 L14.2991795,5.50494359 L14.3057436,5.53735385 L14.3090256,5.57161026 L14.314359,5.60422564 L14.3209231,5.64073846 L14.3285128,5.67089231 L14.3381538,5.70761026 L14.3445128,5.73550769 L14.3564103,5.76586667 L14.373641,5.82186667 L14.3888205,5.85202051 L14.4015385,5.87561026 L14.413641,5.9057641 L14.429641,5.93161026 L14.4427692,5.95745641 L14.4587692,5.98330256 L14.4780513,6.00730256 L14.4922051,6.03089231 L14.5116923,6.05673846 L14.5299487,6.07827692 L14.5504615,6.09981538 L14.5752821,6.12361026 L14.5935385,6.14494359 L14.6193846,6.16894359 L14.6409231,6.19253333 L14.6647179,6.2097641 L14.7164103,6.24853333 L14.74,6.26802051 L14.7701538,6.28730256 L14.7939487,6.30658462 L14.8230769,6.32381538 L14.8542564,6.3392 L14.8833846,6.35417436 L14.9157949,6.37140513 L14.9436923,6.38637949 L14.9804103,6.40155897 L15.0138462,6.41448205 L15.0181538,6.42104615 L15.0321026,6.42535385 L15.0427692,6.42740513 L15.0548718,6.43396923 L15.0708718,6.43827692 L15.0837949,6.4446359 L15.1,6.44894359 L15.1387692,6.46186667 L15.1582564,6.46617436 L15.1797949,6.47273846 L15.202359,6.47909744 L15.2238974,6.48566154 L15.2497436,6.49202051 L15.2755897,6.50289231 L15.3047179,6.50925128 L15.3328205,6.52012308 L15.3662564,6.52443077 L15.3974359,6.53530256 L15.4298462,6.54391795 L15.4653333,6.55253333 L15.5020513,6.5632 L15.5395897,6.57181538 L15.5773333,6.58043077 L15.6150769,6.59130256 L15.6571282,6.60422564 L15.6981538,6.61489231 L15.7422564,6.6257641 L15.789641,6.63643077 L15.8844103,6.66227692 L15.9309744,6.6752 L15.9631795,6.6817641 L15.988,6.69243077 L16.0161026,6.69694359 L16.0419487,6.70761026 L16.0677949,6.71417436 L16.0893333,6.72484103 L16.1129231,6.72914872 L16.1346667,6.74002051 L16.156,6.7486359 L16.1765128,6.75499487 L16.1992821,6.76361026 L16.2152821,6.77448205 L16.2337436,6.78084103 L16.2487179,6.78945641 L16.2659487,6.80032821 L16.2811282,6.81099487 L16.2930256,6.81961026 L16.308,6.82822564 L16.3209231,6.83478974 L16.3328205,6.84545641 L16.3436923,6.85407179 L16.3533333,6.86494359 L16.364,6.87130256 L16.3705641,6.87991795 L16.3791795,6.89078974 L16.3824615,6.89714872 L16.3888205,6.9057641 L16.3941538,6.91437949 L16.3974359,6.92114872 L16.4007179,6.93181538 L16.4027692,6.93837949 L16.4072821,6.94699487 L16.410359,6.95766154 L16.410359,6.97058462 L16.4126154,6.9792 L16.4169231,6.99212308 L16.4169231,7.00299487 L16.4189744,7.01366154 L16.4189744,7.0912 L16.4169231,7.10412308 L16.4169231,7.11499487 L16.4126154,7.12586667 L16.4126154,7.13858462 L16.410359,7.14945641 L16.4072821,7.15807179 L16.4027692,7.17099487 L16.4007179,7.18186667 L16.3974359,7.19478974 L16.3941538,7.20340513 L16.3888205,7.21837949 L16.3855385,7.22699487 L16.3791795,7.23991795 L16.3738462,7.24853333 L16.3705641,7.26145641 L16.364,7.27437949 L16.357641,7.28525128 L16.3467692,7.29817436 L16.3393846,7.30678974 L16.3242051,7.32832821 L16.308,7.35212308 L16.2907692,7.37366154 L16.2757949,7.3952 L16.2552821,7.40812308 L16.2401026,7.42966154 L16.2218462,7.4446359 L16.1992821,7.45981538 L16.1820513,7.47273846 L16.156,7.48566154 L16.1387692,7.49858462 L16.1129231,7.51171282 L16.0893333,7.52237949 L16.0677949,7.53099487 L16.0419487,7.53735385 L16.0117949,7.54822564 L15.9966154,7.55027692 L15.9804103,7.55684103 L15.9631795,7.55889231 L15.9469744,7.5632 L15.9266667,7.56545641 L15.9094359,7.5697641 L15.8942564,7.57181538 L15.8757949,7.57181538 L15.8597949,7.57612308 L15.8425641,7.57837949 L15.7929231,7.57837949 L15.7756923,7.58268718 L15.7574359,7.58268718 L15.7389744,7.57837949 L15.6938462,7.57837949 L15.6766154,7.57612308 L15.6604103,7.57612308 L15.6442051,7.57181538 L15.628,7.5697641 L15.6130256,7.56545641 L15.5957949,7.5632 L15.5644103,7.55684103 L15.5482051,7.55458462 L15.5342564,7.54822564 L15.5149744,7.54391795 L15.5020513,7.53735385 L15.4868718,7.53304615 L15.4513846,7.52237949 L15.4232821,7.50945641 L15.3951795,7.49632821 L15.3693333,7.47909744 L15.3424615,7.46412308 L15.3166154,7.44689231 L15.2950769,7.42966154 L15.2725128,7.40812308 L15.252,7.38658462 L15.2294359,7.36709744 L15.2109744,7.34350769 L15.1927179,7.31971282 L15.1775385,7.28955897 L15.1603077,7.2657641 L15.1451282,7.23561026 L15.1,7.14084103 L14.8327179,7.2097641 L14.8542564,7.30473846 L14.8575385,7.31335385 L14.8608205,7.32196923 L14.8608205,7.3326359 L14.8651282,7.34555897 L14.8682051,7.35417436 L14.8725128,7.36709744 L14.8725128,7.37571282 L14.8747692,7.39089231 L14.8790769,7.40381538 L14.8790769,7.41673846 L14.8811282,7.42966154 L14.8811282,7.44032821 L14.8833846,7.45325128 L14.8876923,7.47048205 L14.8876923,7.48361026 L14.8909744,7.49858462 L14.8909744,7.51171282 L14.8942564,7.52894359 L14.8942564,7.54391795 L14.898359,7.55889231 L14.898359,7.57612308 L14.901641,7.59335385 L14.901641,7.62350769 L14.9028718,7.64299487 L14.9028718,7.65796923 L14.9071795,7.67745641 L14.9071795,7.71417436 L14.9092308,7.73366154 L14.9092308,7.76586667 L14.9135385,7.77878974 L14.9135385,7.82186667 L14.9157949,7.83909744 L14.9157949,7.87150769 L14.9178462,7.89078974 L14.9178462,7.94699487 L14.9221538,7.97058462 L14.9221538,8.01591795 L14.9244103,8.10432821 L15.0277949,8.12361026 L15.0655385,8.13222564 L15.1032821,8.13653333 L15.1387692,8.13878974 L15.1732308,8.14514872 L15.2109744,8.14945641 L15.2454359,8.1537641 L15.2854359,8.15602051 L15.3198974,8.16032821 L15.354359,8.16032821 L15.3951795,8.16237949 L15.5418462,8.16237949 L15.5806154,8.16032821 L15.6150769,8.16032821 L15.6528205,8.15602051 L15.6905641,8.1537641 L15.7270769,8.14945641 L15.7660513,8.14514872 L15.8015385,8.13878974 L15.8380513,8.13653333 L15.8757949,8.13222564 L15.9125128,8.12361026 L15.9535385,8.11930256 L15.988,8.11068718 L16.0257436,8.10207179 L16.0655385,8.09571282 L16.1043077,8.08484103 L16.1387692,8.07622564 L16.1765128,8.06761026 L16.2152821,8.05694359 L16.2487179,8.04381538 L16.2854359,8.0352 L16.3209231,8.02022564 L16.3910769,7.99643077 L16.4222564,7.98350769 L16.4589744,7.96853333 L16.4911795,7.95130256 L16.5235897,7.93837949 L16.5527179,7.91889231 L16.5838974,7.90166154 L16.612,7.88668718 L16.6690256,7.84771282 L16.6981538,7.82822564 L16.7260513,7.80894359 L16.7541538,7.79171282 L16.78,7.76812308 L16.8048205,7.74658462 L16.829641,7.72504615 L16.8542564,7.70125128 L16.8792821,7.67745641 L16.9018462,7.65161026 L16.9244103,7.62802051 L16.9449231,7.60422564 L16.9644103,7.57837949 L16.9826667,7.55027692 L17.0042051,7.52443077 L17.0429744,7.46637949 L17.0581538,7.43827692 L17.0753846,7.40812308 L17.093641,7.37571282 L17.1075897,7.34555897 L17.1248205,7.31335385 L17.1377436,7.28094359 L17.1506667,7.24853333 L17.1658462,7.21407179 L17.1744615,7.18186667 L17.1873846,7.1472 L17.1939487,7.11499487 L17.2035897,7.08053333 L17.2099487,7.04381538 L17.2185641,7.00935385 L17.2218462,6.97284103 L17.2284103,6.93837949 L17.2314872,6.90371282 L17.2337436,6.86494359 L17.2380513,6.82822564 L17.2380513,6.71827692 L17.2337436,6.67745641 L17.2314872,6.63868718 L17.2284103,6.60196923 L17.2251282,6.5632 L17.2185641,6.52443077 L17.2165128,6.48566154 L17.2068718,6.4446359 L17.1992821,6.40586667 L17.1906667,6.36504615 L17.1797949,6.32607179 L17.1701538,6.28299487 L17.1625641,6.25940513 L17.1549744,6.23355897 L17.1443077,6.20750769 L17.1346667,6.18166154 L17.1227692,6.15581538 L17.1075897,6.12996923 L17.0958974,6.10843077 L17.084,6.08258462 L17.0667692,6.06104615 L17.0515897,6.03725128 L17.0353846,6.01591795 L17.0161026,5.99212308 L17.0009231,5.9726359 L16.9806154,5.94884103 L16.9588718,5.93161026 L16.9406154,5.91232821 L16.8727179,5.85407179 L16.82,5.82186667 L16.7962051,5.80668718 L16.7713846,5.78945641 L16.7445128,5.77448205 L16.714359,5.75725128 L16.6852308,5.74207179 L16.6573333,5.72914872 L16.6249231,5.71622564 L16.5925128,5.70330256 L16.5635897,5.69037949 L16.5299487,5.67745641 L16.4934359,5.66658462 L16.4007179,5.64504615 L16.3758974,5.64073846 L16.2585641,5.61489231 L16.1734359,5.59561026 L16.146359,5.58904615 L16.1184615,5.58248205 L15.9168205,5.53735385 L15.8942564,5.53078974 L15.8628718,5.52443077 L15.8327179,5.51786667 L15.7475897,5.49858462 L15.7184615,5.49202051 L15.6905641,5.48566154 L15.6636923,5.48340513 L15.6345641,5.47704615 L15.6054359,5.46843077 L15.5773333,5.46412308 L15.5482051,5.45755897 L15.5192821,5.44668718 L15.4954872,5.44258462 L15.4686154,5.43171282 L15.4405128,5.42535385 L15.4156923,5.41673846 L15.3951795,5.40812308 L15.3490256,5.39068718 L15.3285128,5.38412308 L15.308,5.37345641 L15.2887179,5.36278974 L15.2725128,5.35417436 L15.252,5.34555897 L15.2368205,5.33468718 L15.2208205,5.32607179 L15.2089231,5.31314872 L15.1927179,5.30227692 L15.1797949,5.29386667 L15.1701538,5.28299487 L15.1582564,5.27007179 L15.1486154,5.26145641 L15.1291282,5.24196923 L15.1235897,5.22925128 L15.1129231,5.22043077 L15.106359,5.20750769 L15.1,5.1966359 L15.0967179,5.18596923 L15.090359,5.17530256 L15.0881026,5.16217436 L15.0837949,5.15355897 L15.0817436,5.13427692 L15.0751795,5.11478974 L15.0751795,5.09550769 L15.0708718,5.07396923 L15.0751795,5.05673846 L15.0751795,5.03725128 L15.0784615,5.0177641 L15.0817436,4.99848205 L15.0934359,4.95971282 L15.1,4.94248205 L15.109641,4.92094359 L15.1184615,4.90145641 L15.1334359,4.88422564 L15.1451282,4.86268718 L15.1603077,4.84545641 L15.1775385,4.82391795 L15.1927179,4.80668718 L15.2109744,4.7872 L15.2282051,4.76791795 L15.2454359,4.75273846 L15.2659487,4.73981538 L15.2854359,4.72258462 L15.3047179,4.70966154 L15.3252308,4.69673846 L15.3457436,4.68381538 L15.3693333,4.67089231 L15.3921026,4.66227692 L15.4126154,4.65140513 L15.4351795,4.64278974 L15.46,4.63643077 L15.4868718,4.62986667 L15.5127179,4.62125128 L15.5461538,4.61468718 L15.5709744,4.61058462 L15.5988718,4.60832821 L15.628,4.60607179 L15.6528205,4.60196923 L15.733641,4.60196923 L15.7594872,4.60607179 L15.7832821,4.60832821 L15.8091282,4.61468718 L15.8306667,4.62125128 L15.8575385,4.62555897 L15.8780513,4.63191795 L15.9008205,4.64278974 L15.922359,4.65140513 L15.9469744,4.66227692 L15.9695385,4.67314872 L15.988,4.68812308 L16.0083077,4.70309744 L16.0333333,4.71827692 L16.0515897,4.73550769 L16.0708718,4.75273846 L16.0934359,4.77222564 L16.1129231,4.7937641 L16.1313846,4.81304615 L16.149641,4.83684103 L16.1711795,4.8606359 L16.1894359,4.88648205 L16.2089231,4.91232821 L16.2628718,4.99191795 L16.4911795,4.93161026 L16.4739487,4.13427692 L16.3941538,4.11478974 L16.3791795,4.11253333 L16.364,4.10843077 L16.3436923,4.10391795 L16.3274872,4.09981538 L16.3112821,4.09325128 L16.2907692,4.0912 L16.2757949,4.08668718 L16.2585641,4.0846359 L16.2433846,4.08032821 L16.2261538,4.07807179 L16.2089231,4.07807179 L16.1927179,4.07602051 L16.1765128,4.07171282 L16.1615385,4.06945641 L16.1410256,4.06535385 L16.1248205,4.06535385 L16.1108718,4.06309744 L16.0934359,4.05878974 L16.0774359,4.05878974 L16.0612308,4.05653333 L16.0462564,4.05653333 L16.0300513,4.05222564 L16.0117949,4.05222564 L15.9966154,4.05017436 L15.9652308,4.05017436 L15.9502564,4.04586667 L15.9008205,4.04586667 L15.8844103,4.04361026 L15.789641,4.04361026 L15.7734359,4.04586667 L15.7229744,4.04586667 L15.7077949,4.05017436 L15.6938462,4.05017436 L15.6786667,4.05222564 L15.6636923,4.05222564 L15.6474872,4.05653333 L15.6312821,4.05653333 L15.6150769,4.05878974 L15.5988718,4.05878974 L15.5828718,4.06309744 L15.5676923,4.06535385 L15.5527179,4.06945641 L15.5352821,4.06945641 L15.5030769,4.07602051 L15.4878974,4.07807179 L15.4706667,4.08032821 L15.46,4.0846359 L15.4405128,4.08668718 L15.4255385,4.09325128 L15.410359,4.09755897 L15.3951795,4.09981538 L15.3791795,4.10391795 L15.3457436,4.11478974 L15.3100513,4.12340513 L15.2788718,4.13632821 L15.2454359,4.1472 L15.2142564,4.15786667 L15.1830769,4.16873846 L15.1516923,4.18166154 L15.1235897,4.1966359 L15.090359,4.20955897 L15.0622564,4.22248205 L15.0321026,4.23971282 L15.0029744,4.25489231 L14.9436923,4.28730256 L14.9178462,4.30658462 L14.8909744,4.3217641 L14.8651282,4.34104615 L14.8380513,4.36053333 L14.8144615,4.37981538 L14.7886154,4.39930256 L14.7627692,4.42084103 L14.74,4.44443077 L14.7164103,4.46391795 L14.6926154,4.48566154 L14.6700513,4.51150769 L14.6462564,4.53304615 L14.6247179,4.5566359 L14.6042051,4.58022564 L14.5838974,4.60832821 L14.5633846,4.63191795 L14.5406154,4.65796923 L14.5203077,4.68381538 L14.5030769,4.71396923 L14.4835897,4.74637949 L14.4653333,4.77427692 L14.4329231,4.83253333 L14.4167179,4.86268718 L14.4015385,4.89284103 L14.3888205,4.92525128 L14.373641,4.95314872 L14.3617436,4.98555897 L14.3521026,5.0177641 L14.3424615,5.05017436 L14.3338462,5.07827692 L14.3242051,5.11048205 L14.3186667,5.14289231 L14.3057436,5.20750769 L14.3026667,5.23991795 L14.2991795,5.27437949 L14.2950769,5.30658462 L14.2917949,5.33899487 L14.2917949,5.40586667 L14.2950769,5.43807179 L14.2950769,5.46843077 Z M18.6454359,5.68812308 L18.6487179,5.74412308 L18.6540513,5.80237949 L18.6636923,5.85632821 L18.6702564,5.9166359 L18.6842051,5.97058462 L18.6917949,6.02453333 L18.7057436,6.07602051 L18.7219487,6.12771282 L18.7371282,6.18166154 L18.7531282,6.22925128 L18.7726154,6.28094359 L18.8124103,6.3777641 L18.8329231,6.42535385 L18.86,6.47273846 L18.8825641,6.52012308 L18.9127179,6.5632 L18.9375385,6.60853333 L18.9666667,6.64935385 L18.9978462,6.69243077 L19.0302564,6.73345641 L19.0614359,6.77448205 L19.0969231,6.81325128 L19.1315897,6.85202051 L19.2101538,6.9297641 L19.2468718,6.96196923 L19.2909744,6.99868718 L19.3254359,7.02658462 L19.3642051,7.05673846 L19.4019487,7.0846359 L19.4396923,7.11499487 L19.4794872,7.14084103 L19.5194872,7.1646359 L19.5572308,7.19253333 L19.6433846,7.23561026 L19.6887179,7.25714872 L19.7285128,7.27889231 L19.7726154,7.29817436 L19.8179487,7.31540513 L19.8630769,7.33489231 L19.9053333,7.35212308 L19.9516923,7.36709744 L20.0464615,7.39950769 L20.1424615,7.42535385 L20.1908718,7.43602051 L20.2413333,7.44689231 L20.2942564,7.4577641 L20.341641,7.46412308 L20.3955897,7.47273846 L20.4462564,7.47909744 L20.4956923,7.48566154 L20.5539487,7.48996923 L20.6066667,7.49632821 L20.661641,7.49858462 L20.7157949,7.49858462 L20.7715897,7.50309744 L20.9504615,7.50309744 L20.9699487,7.49858462 L21.0314872,7.49858462 L21.0507692,7.49632821 L21.0885128,7.49632821 L21.108,7.49222564 L21.1434872,7.49222564 L21.1627692,7.48996923 L21.18,7.48996923 L21.1984615,7.48566154 L21.2189744,7.48361026 L21.2372308,7.48361026 L21.2534359,7.47909744 L21.2737436,7.47909744 L21.2922051,7.47704615 L21.3082051,7.47273846 L21.3276923,7.47273846 L21.3494359,7.47048205 L21.3633846,7.46637949 L21.3838974,7.46412308 L21.4001026,7.45981538 L21.4191795,7.4577641 L21.4353846,7.45325128 L21.4548718,7.4512 L21.4710769,7.44689231 L21.4883077,7.4446359 L21.5077949,7.44032821 L21.5250256,7.43827692 L21.5410256,7.43602051 L21.5605128,7.43171282 L21.5744615,7.42535385 L21.5939487,7.42309744 L21.6111795,7.41878974 L21.6306667,7.41243077 L21.645641,7.40812308 L21.6606154,7.40381538 L21.6801026,7.39950769 L21.6973333,7.3952 L21.7125128,7.39089231 L21.7285128,7.38432821 L21.7502564,7.37571282 L21.7652308,7.37366154 L21.7802051,7.36709744 L21.797641,7.36073846 L21.8171282,7.35417436 L21.8331282,7.34986667 L21.8483077,7.34350769 L21.8784615,7.32832821 L21.8956923,7.32196923 L21.9129231,7.31540513 L21.9666667,7.29386667 L22.1660513,6.68381538 L21.9851282,6.55253333 L21.9215385,6.60422564 L21.9086154,6.61714872 L21.8956923,6.6257641 L21.8579487,6.65796923 L21.8460513,6.66658462 L21.8331282,6.6752 L21.8191795,6.68381538 L21.804,6.69468718 L21.7890256,6.70555897 L21.7771282,6.71417436 L21.7652308,6.72484103 L21.7502564,6.73345641 L21.7350769,6.74207179 L21.7221538,6.7486359 L21.7059487,6.75725128 L21.6940513,6.76812308 L21.6801026,6.77448205 L21.6641026,6.78309744 L21.652,6.78945641 L21.636,6.80032821 L21.6238974,6.80668718 L21.6066667,6.81530256 L21.5939487,6.82186667 L21.5767179,6.82822564 L21.5627692,6.83909744 L21.5508718,6.84545641 L21.533641,6.85202051 L21.5207179,6.85837949 L21.5043077,6.86494359 L21.4883077,6.87355897 L21.4710769,6.87991795 L21.4612308,6.88648205 L21.4452308,6.89078974 L21.4323077,6.89714872 L21.4161026,6.90371282 L21.4001026,6.91027692 L21.3859487,6.91232821 L21.3707692,6.91889231 L21.3568205,6.92114872 L21.341641,6.9297641 L21.3276923,6.93181538 L21.3104615,6.93386667 L21.2995897,6.94043077 L21.2833846,6.94473846 L21.269641,6.94699487 L21.2534359,6.95109744 L21.2415385,6.95335385 L21.2286154,6.95766154 L21.2134359,6.95766154 L21.1984615,6.95971282 L21.1832821,6.96196923 L21.1713846,6.96196923 L21.1584615,6.96627692 L21.1434872,6.96627692 L21.1293333,6.97058462 L21.1047179,6.97058462 L21.0885128,6.97284103 L21.0021538,6.97284103 L20.9666667,6.97058462 L20.9344615,6.96627692 L20.9010256,6.96196923 L20.8708718,6.95971282 L20.8372308,6.95335385 L20.8050256,6.94699487 L20.7771282,6.94043077 L20.7469744,6.93386667 L20.7157949,6.9297641 L20.6876923,6.91889231 L20.6542564,6.91027692 L20.6271795,6.89714872 L20.5980513,6.88648205 L20.5722051,6.87355897 L20.5420513,6.8606359 L20.5121026,6.84771282 L20.4881026,6.83253333 L20.4591795,6.81961026 L20.4333333,6.80237949 L20.4085128,6.78309744 L20.3836923,6.76812308 L20.3568205,6.7486359 L20.3051282,6.70966154 L20.2803077,6.68832821 L20.2575385,6.66658462 L20.2327179,6.64299487 L20.2091282,6.6192 L20.1843077,6.59335385 L20.1617436,6.5697641 L20.1389744,6.54391795 L20.1153846,6.52012308 L20.0928205,6.48996923 L20.074359,6.46412308 L20.0528205,6.43396923 L20.0335385,6.40586667 L20.0140513,6.3777641 L19.9990769,6.34781538 L19.9828718,6.31971282 L19.962359,6.28955897 L19.9461538,6.26145641 L19.9332308,6.22925128 L19.9170256,6.20114872 L19.9053333,6.16894359 L19.8954872,6.13632821 L19.8825641,6.10412308 L19.8739487,6.07171282 L19.8587692,6.03950769 L19.8501538,6.00730256 L19.8437949,5.9726359 L19.8341538,5.94022564 L19.8243077,5.9057641 L19.8113846,5.83684103 L19.8093333,5.79807179 L19.804,5.76586667 L19.7996923,5.72484103 L19.7964103,5.69037949 L19.7931282,5.65366154 L19.7900513,5.61694359 L19.7900513,5.46412308 L19.7931282,5.42535385 L19.7931282,5.38637949 L19.7964103,5.34966154 L19.7996923,5.31314872 L19.8060513,5.27643077 L19.8093333,5.24196923 L19.82,5.17304615 L19.8275897,5.13632821 L19.8341538,5.10186667 L19.8405128,5.06966154 L19.8501538,5.03294359 L19.8587692,5.00053333 L19.8708718,4.97037949 L19.8803077,4.93817436 L19.8889231,4.9057641 L19.9020513,4.87335385 L19.9106667,4.84114872 L19.9246154,4.81099487 L19.9365128,4.78084103 L19.9516923,4.74843077 L19.9654359,4.71827692 L19.9828718,4.68812308 L19.9990769,4.65796923 L20.0140513,4.62986667 L20.0292308,4.60196923 L20.0507692,4.57161026 L20.0669744,4.54596923 L20.0852308,4.51786667 L20.1014359,4.48771282 L20.1229744,4.46391795 L20.1498462,4.4337641 L20.1713846,4.40566154 L20.2154872,4.35396923 L20.2413333,4.32812308 L20.2641026,4.30658462 L20.2899487,4.28073846 L20.3147692,4.26145641 L20.341641,4.23971282 L20.3685128,4.22043077 L20.394359,4.20094359 L20.418359,4.18166154 L20.4462564,4.16443077 L20.4721026,4.14925128 L20.4989744,4.13427692 L20.5281026,4.11704615 L20.5572308,4.10391795 L20.5841026,4.0912 L20.6144615,4.08032821 L20.642359,4.06945641 L20.6755897,4.05878974 L20.7036923,4.05017436 L20.7361026,4.04361026 L20.7652308,4.03725128 L20.8267692,4.02432821 L20.8622564,4.02002051 L20.8944615,4.0177641 L20.9268718,4.01345641 L20.962359,4.01140513 L21.0626667,4.01140513 L21.0786667,4.01345641 L21.108,4.01345641 L21.1229744,4.0177641 L21.1391795,4.02002051 L21.1541538,4.02002051 L21.1672821,4.02432821 L21.1832821,4.02637949 L21.1984615,4.0286359 L21.2134359,4.03294359 L21.2286154,4.03725128 L21.2415385,4.03930256 L21.2575385,4.04361026 L21.269641,4.04586667 L21.285641,4.05222564 L21.2995897,4.05653333 L21.3104615,4.06309744 L21.3276923,4.06535385 L21.3547692,4.07807179 L21.3707692,4.0846359 L21.3838974,4.0912 L21.3955897,4.09755897 L21.4097436,4.10391795 L21.4224615,4.11253333 L21.4386667,4.11704615 L21.4517949,4.12771282 L21.4645128,4.13427692 L21.4766154,4.14289231 L21.4883077,4.14925128 L21.5002051,4.15786667 L21.5151795,4.16873846 L21.5270769,4.17509744 L21.5369231,4.18371282 L21.5627692,4.2032 L21.570359,4.21386667 L21.5853333,4.22248205 L21.5939487,4.23109744 L21.6066667,4.24422564 L21.6165128,4.25489231 L21.6306667,4.26555897 L21.6403077,4.27643077 L21.6499487,4.28730256 L21.6585641,4.29817436 L21.6682051,4.30884103 L21.6768205,4.3217641 L21.6876923,4.33468718 L21.7059487,4.36053333 L21.7157949,4.36914872 L21.7221538,4.38637949 L21.7317949,4.39930256 L21.741641,4.41222564 L21.7502564,4.42514872 L21.7588718,4.43807179 L21.7652308,4.45304615 L21.7717949,4.46617436 L21.7802051,4.48340513 L21.7867692,4.49837949 L21.7933333,4.51150769 L21.8212308,4.57817436 L22.0745641,4.58022564 L22.2556923,3.85181538 L22.18,3.80668718 L22.1660513,3.79581538 L22.1467692,3.7872 L22.1262564,3.77427692 L22.1069744,3.76340513 L22.0507692,3.73550769 L22.0314872,3.72689231 L22.012,3.71622564 L21.9937436,3.70535385 L21.9765128,3.70084103 L21.9592821,3.69017436 L21.9387692,3.67950769 L21.9182564,3.67089231 L21.8987692,3.66432821 L21.8784615,3.65571282 L21.8612308,3.64914872 L21.8460513,3.63848205 L21.8267692,3.63191795 L21.8062564,3.62555897 L21.7867692,3.61694359 L21.7685128,3.61037949 L21.7502564,3.60402051 L21.7285128,3.59745641 L21.7125128,3.59109744 L21.6940513,3.58678974 L21.6552821,3.57161026 L21.636,3.56525128 L21.6165128,3.55868718 L21.6003077,3.55232821 L21.5808205,3.55007179 L21.5627692,3.54371282 L21.5422564,3.53940513 L21.5250256,3.53509744 L21.5043077,3.52648205 L21.4677949,3.52196923 L21.4485128,3.51561026 L21.4277949,3.51130256 L21.4097436,3.50699487 L21.388,3.50473846 L21.3707692,3.49837949 L21.3525128,3.49407179 L21.3299487,3.49202051 L21.3104615,3.4897641 L21.2922051,3.48545641 L21.2737436,3.48114872 L21.2534359,3.48114872 L21.2362051,3.47889231 L21.2167179,3.47684103 L21.1918974,3.47253333 L21.1746667,3.47253333 L21.1541538,3.46822564 L21.1361026,3.46822564 L21.114359,3.46596923 L21.0948718,3.46596923 L21.0755897,3.46166154 L21.0335385,3.46166154 L21.0152821,3.45961026 L20.7996923,3.45961026 L20.7426667,3.46166154 L20.6844103,3.46596923 L20.6304615,3.46822564 L20.5722051,3.47684103 L20.4634872,3.4897641 L20.4115897,3.49837949 L20.3568205,3.50473846 L20.3051282,3.51561026 L20.2522051,3.52648205 L20.2005128,3.53714872 L20.1508718,3.55007179 L20.0991795,3.56525128 L20.0507692,3.58022564 L19.9527179,3.61037949 L19.9053333,3.62986667 L19.8587692,3.64484103 L19.8146667,3.66432821 L19.7693333,3.68586667 L19.7231795,3.70945641 L19.6768205,3.72894359 L19.6368205,3.75478974 L19.5904615,3.77653333 L19.5486154,3.80237949 L19.5075897,3.82802051 L19.4655385,3.85837949 L19.4234872,3.88196923 L19.3826667,3.91437949 L19.338359,3.94678974 L19.2532308,4.0177641 L19.2124103,4.05653333 L19.1734359,4.0912 L19.1346667,4.12996923 L19.1014359,4.17078974 L19.0647179,4.20955897 L19.0302564,4.25058462 L18.9978462,4.29366154 L18.9666667,4.33899487 L18.9094359,4.4272 L18.8825641,4.47253333 L18.8567179,4.52012308 L18.8329231,4.56955897 L18.8070769,4.61694359 L18.7877949,4.66453333 L18.770359,4.71622564 L18.7510769,4.76791795 L18.7348718,4.81735385 L18.7186667,4.87335385 L18.7026667,4.92525128 L18.6897436,4.97899487 L18.6798974,5.03725128 L18.6702564,5.09325128 L18.661641,5.14925128 L18.6540513,5.20750769 L18.6487179,5.26781538 L18.6421538,5.32607179 L18.6401026,5.38637949 L18.6401026,5.56955897 L18.6421538,5.62781538 L18.6454359,5.68812308 Z M33.2714872,16.7254564 L32.7830769,18.1845333 L34.0214359,17.2706872 L35.2585641,18.1845333 L34.7701538,16.7254564 L36.0214359,15.8308923 L34.4848205,15.8397128 L34.0214359,14.3761231 L33.5557949,15.8397128 L32.0169231,15.8308923 L33.2714872,16.7254564 Z M24.9121026,7.1086359 L24.9162051,7.07602051 L24.9184615,7.04381538 L24.9227692,7.00935385 L24.9248205,6.97694359 L24.9324103,6.94473846 L24.9346667,6.91027692 L24.9410256,6.87786667 L24.949641,6.84114872 L24.9551795,6.81099487 L24.9615385,6.77448205 L24.9713846,6.74207179 L24.9787692,6.70761026 L24.989641,6.6752 L24.9982564,6.63868718 L25.0068718,6.60422564 L25.0218462,6.5697641 L25.0337436,6.53735385 L25.0478974,6.50289231 L25.0595897,6.46617436 L25.0725128,6.43171282 L25.0887179,6.3952 L25.1036923,6.36053333 L25.1178462,6.32832821 L25.1340513,6.29591795 L25.1490256,6.26145641 L25.1652308,6.22925128 L25.1857436,6.20114872 L25.2019487,6.16894359 L25.2169231,6.14084103 L25.2353846,6.10843077 L25.253641,6.07827692 L25.2729231,6.05017436 L25.2911795,6.02453333 L25.3118974,5.99643077 L25.3278974,5.97058462 L25.3484103,5.94022564 L25.3676923,5.9166359 L25.3904615,5.88853333 L25.4089231,5.86699487 L25.4302564,5.84114872 L25.4509744,5.81961026 L25.4733333,5.7937641 L25.4940513,5.76996923 L25.517641,5.74843077 L25.5412308,5.72914872 L25.5629744,5.70761026 L25.5877949,5.68812308 L25.6113846,5.66658462 L25.6339487,5.64504615 L25.6597949,5.62781538 L25.6846154,5.61058462 L25.7114872,5.59109744 L25.7363077,5.57612308 L25.7633846,5.5566359 L25.7914872,5.53940513 L25.8193846,5.52012308 L25.8495385,5.50494359 L25.877641,5.49202051 L25.9024615,5.47704615 L25.933641,5.46412308 L25.9605128,5.45325128 L25.989641,5.44258462 L26.0197949,5.43171282 L26.0433846,5.42535385 L26.045641,5.42084103 L26.0737436,5.41673846 L26.1598974,5.39725128 L26.1857436,5.39273846 L26.213641,5.39068718 L26.2417436,5.38637949 L26.3258462,5.38637949 L26.356,5.39068718 L26.3797949,5.39068718 L26.4078974,5.39725128 L26.4378462,5.39930256 L26.4669744,5.40586667 L26.4971282,5.41222564 L26.5229744,5.41878974 L26.5510769,5.42945641 L26.5791795,5.43396923 L26.6081026,5.44668718 L26.6384615,5.45755897 L26.6673846,5.46843077 L26.7180513,5.49632821 L26.7438974,5.50925128 L26.765641,5.52443077 L26.7902564,5.53735385 L26.8128205,5.55232821 L26.8355897,5.56955897 L26.8540513,5.58473846 L26.8753846,5.60422564 L26.8969231,5.62350769 L26.9174359,5.64073846 L26.9379487,5.66227692 L26.9518974,5.6817641 L26.970359,5.70104615 L26.9865641,5.72258462 L27.0037949,5.74412308 L27.0156923,5.76791795 L27.0329231,5.7937641 L27.045641,5.81755897 L27.0575385,5.84114872 L27.0694359,5.86925128 L27.0835897,5.89509744 L27.0922051,5.92525128 L27.1049231,5.95335385 L27.125641,6.01140513 L27.1297436,6.04381538 L27.1393846,6.07602051 L27.1459487,6.10843077 L27.1514872,6.14084103 L27.1588718,6.17530256 L27.1631795,6.2097641 L27.1664615,6.23991795 L27.1728205,6.27232821 L27.1728205,6.30453333 L27.1750769,6.33468718 L27.178359,6.36504615 L27.178359,6.48996923 L27.1750769,6.52217436 L27.1750769,6.55027692 L27.1728205,6.58043077 L27.1697436,6.61489231 L27.1664615,6.64730256 L27.1631795,6.6752 L27.1588718,6.70761026 L27.1514872,6.74002051 L27.1459487,6.76812308 L27.1393846,6.80032821 L27.1330256,6.83253333 L27.1274872,6.86494359 L27.1180513,6.89304615 L27.1114872,6.92525128 L27.1018462,6.95766154 L27.0922051,6.99007179 L27.0813333,7.02227692 L27.0694359,7.05017436 L27.0575385,7.08258462 L27.0478974,7.11499487 L27.036,7.1472 L27.0230769,7.17961026 L27.0070769,7.2097641 L26.9929231,7.24217436 L26.9767179,7.27027692 L26.9650256,7.30473846 L26.9486154,7.3326359 L26.933641,7.36504615 L26.9174359,7.3952 L26.8969231,7.42309744 L26.8796923,7.4512 L26.8647179,7.47909744 L26.8462564,7.50945641 L26.8259487,7.53735385 L26.8054359,7.5632 L26.7869744,7.59335385 L26.7687179,7.61714872 L26.7504615,7.64299487 L26.7299487,7.66884103 L26.7086154,7.69468718 L26.6891282,7.72053333 L26.6673846,7.74658462 L26.6437949,7.76812308 L26.6232821,7.7937641 L26.554359,7.86084103 L26.5293333,7.88443077 L26.5069744,7.90596923 L26.4798974,7.9297641 L26.4530256,7.95130256 L26.4282051,7.97058462 L26.402359,7.99212308 L26.3765128,8.01161026 L26.3539487,8.03109744 L26.3205128,8.05243077 L26.2901538,8.07191795 L26.2622564,8.09140513 L26.2308718,8.11068718 L26.2019487,8.12791795 L26.1685128,8.14309744 L26.141641,8.16032821 L26.1125128,8.17530256 L26.0813333,8.18822564 L26.0532308,8.19684103 L26.0433846,8.20135385 L26.0251282,8.20996923 L25.9962051,8.2206359 L25.9681026,8.2272 L25.9422564,8.23581538 L25.9121026,8.24217436 L25.8829744,8.24648205 L25.8591795,8.25304615 L25.8290256,8.25509744 L25.8031795,8.25509744 L25.7773333,8.25940513 L25.7246154,8.25940513 L25.6977436,8.25509744 L25.6729231,8.25304615 L25.6470769,8.24853333 L25.62,8.24648205 L25.5908718,8.23991795 L25.5670769,8.23355897 L25.5412308,8.22494359 L25.4659487,8.19478974 L25.4368205,8.18186667 L25.4089231,8.16894359 L25.3818462,8.1537641 L25.3278974,8.12155897 L25.3073846,8.10432821 L25.2825641,8.08914872 L25.2589744,8.06966154 L25.2353846,8.05243077 L25.2169231,8.0352 L25.1955897,8.01161026 L25.1748718,7.99212308 L25.1566154,7.97284103 L25.1371282,7.95130256 L25.1198974,7.9297641 L25.1006154,7.90596923 L25.0854359,7.88012308 L25.0692308,7.85427692 L25.0575385,7.82822564 L25.0413333,7.8046359 L25.0284103,7.77878974 L25.0144615,7.7486359 L25.0003077,7.72504615 L24.9927179,7.69058462 L24.9830769,7.66248205 L24.9744615,7.63437949 L24.9637949,7.60196923 L24.9551795,7.5697641 L24.949641,7.53304615 L24.9379487,7.50309744 L24.9346667,7.46637949 L24.9293333,7.43171282 L24.9248205,7.39950769 L24.9184615,7.36709744 L24.9162051,7.33489231 L24.9162051,7.30473846 L24.9121026,7.27027692 L24.9121026,7.1086359 Z M23.8655385,6.82822564 L23.8731282,6.87991795 L23.8805128,6.93181538 L23.8913846,6.9792 L23.9012308,7.03089231 L23.9108718,7.08258462 L23.9217436,7.13448205 L23.9344615,7.18186667 L23.949641,7.23355897 L23.9678974,7.28525128 L23.986359,7.33489231 L24.0046154,7.38432821 L24.0230769,7.43602051 L24.0466667,7.48566154 L24.0692308,7.53735385 L24.0950769,7.58473846 L24.1198974,7.63437949 L24.1467692,7.68196923 L24.1715897,7.73140513 L24.2029744,7.77448205 L24.2577436,7.86494359 L24.2881026,7.90596923 L24.3182564,7.95130256 L24.3527179,7.99212308 L24.3871795,8.03109744 L24.418359,8.07191795 L24.4550769,8.11068718 L24.4928205,8.14945641 L24.5272821,8.18822564 L24.5670769,8.22494359 L24.6037949,8.25940513 L24.6435897,8.29386667 L24.6846154,8.33058462 L24.7687179,8.39294359 L24.8138462,8.42535385 L24.8591795,8.45550769 L24.9034872,8.48361026 L24.949641,8.51171282 L24.9949744,8.54166154 L25.0413333,8.5697641 L25.0909744,8.59561026 L25.1404103,8.61940513 L25.1900513,8.64299487 L25.244,8.66678974 L25.2956923,8.68832821 L25.3410256,8.71212308 L25.3935385,8.72935385 L25.4454359,8.7486359 L25.4940513,8.76586667 L25.5477949,8.78104615 L25.5974359,8.79396923 L25.6470769,8.80689231 L25.6977436,8.81981538 L25.7494359,8.83273846 L25.7998974,8.84135385 L25.8540513,8.84791795 L25.9024615,8.85427692 L25.9551795,8.86289231 L26.0013333,8.86945641 L26.0433846,8.87150769 L26.1049231,8.87150769 L26.1566154,8.8737641 L26.2083077,8.8737641 L26.2622564,8.87150769 L26.3073846,8.86945641 L26.3590769,8.86514872 L26.4606154,8.85222564 L26.5090256,8.84566154 L26.5596923,8.83499487 L26.6126154,8.82412308 L26.6620513,8.81325128 L26.7116923,8.80053333 L26.7611282,8.78535385 L26.8128205,8.76812308 L26.8604103,8.75294359 L26.9133333,8.73571282 L26.9617436,8.71643077 L27.0089231,8.69694359 L27.0575385,8.67540513 L27.1459487,8.63027692 L27.1923077,8.60422564 L27.237641,8.58043077 L27.2774359,8.55253333 L27.3248205,8.52873846 L27.3635897,8.49878974 L27.4046154,8.47068718 L27.442359,8.43827692 L27.4844103,8.40607179 L27.5188718,8.37571282 L27.5553846,8.34125128 L27.6275897,8.27232821 L27.6632821,8.23355897 L27.6954872,8.19478974 L27.7322051,8.15602051 L27.7613333,8.11930256 L27.7914872,8.07622564 L27.8204103,8.0352 L27.8507692,7.99212308 L27.877641,7.94699487 L27.9077949,7.90166154 L27.9326154,7.85858462 L27.9564103,7.80894359 L27.9853333,7.76155897 L28.0070769,7.71417436 L28.0286154,7.66658462 L28.0478974,7.61714872 L28.0673846,7.5697641 L28.0878974,7.52237949 L28.1028718,7.47273846 L28.1180513,7.42535385 L28.1428718,7.32832821 L28.1568205,7.28094359 L28.1664615,7.23355897 L28.1740513,7.18617436 L28.1804103,7.13858462 L28.1859487,7.0846359 L28.1923077,7.03745641 L28.1955897,6.99007179 L28.1955897,6.83909744 L28.1923077,6.78945641 L28.1890256,6.74207179 L28.1859487,6.69243077 L28.1804103,6.64299487 L28.1740513,6.59130256 L28.1642051,6.54166154 L28.1545641,6.49202051 L28.138359,6.44032821 L28.1266667,6.39294359 L28.1147692,6.34125128 L28.0997949,6.28955897 L28.0835897,6.24217436 L28.0641026,6.19253333 L28.0446154,6.14084103 L28.026359,6.08894359 L27.9822564,5.99212308 L27.9541538,5.94022564 L27.9326154,5.89509744 L27.9077949,5.84771282 L27.8796923,5.80237949 L27.8550769,5.75725128 L27.8282051,5.71396923 L27.7978462,5.67089231 L27.7687179,5.63212308 L27.7375385,5.58904615 L27.7073846,5.54596923 L27.676,5.50925128 L27.6405128,5.46843077 L27.6093333,5.43171282 L27.5026667,5.32607179 L27.4626667,5.29161026 L27.4251282,5.25714872 L27.349641,5.19458462 L27.3086154,5.16217436 L27.2645128,5.13427692 L27.2234872,5.10412308 L27.178359,5.07827692 L27.1373333,5.05017436 L27.0922051,5.02432821 L27.0478974,5.00053333 L27.0015385,4.97694359 L26.9518974,4.95314872 L26.9034872,4.93161026 L26.8540513,4.91232821 L26.8054359,4.89078974 L26.7547692,4.87130256 L26.706359,4.85407179 L26.6556923,4.83684103 L26.6050256,4.82166154 L26.5036923,4.79581538 L26.4530256,4.78289231 L26.402359,4.77427692 L26.3539487,4.76566154 L26.3010256,4.75930256 L26.2450256,4.75273846 L26.1945641,4.74637949 L26.1438974,4.74207179 L26.092,4.73981538 L25.9356923,4.73981538 L25.8796923,4.74207179 L25.8290256,4.74637949 L25.7730256,4.74843077 L25.7246154,4.75499487 L25.669641,4.76135385 L25.6156923,4.77222564 L25.5629744,4.78084103 L25.508,4.78945641 L25.4550769,4.80443077 L25.3990769,4.81530256 L25.3484103,4.83253333 L25.2956923,4.84750769 L25.2394872,4.86268718 L25.1857436,4.88422564 L25.1340513,4.90145641 L25.0778462,4.92094359 L25.0284103,4.94022564 L24.9787692,4.96402051 L24.9324103,4.98555897 L24.8850256,5.00709744 L24.8366154,5.03294359 L24.7925128,5.05878974 L24.7436923,5.0846359 L24.7006154,5.11048205 L24.6587692,5.1406359 L24.6167179,5.16873846 L24.5779487,5.1966359 L24.5371282,5.22925128 L24.5004103,5.26145641 L24.4624615,5.29386667 L24.4249231,5.32607179 L24.3914872,5.36053333 L24.3547692,5.39725128 L24.2911795,5.46617436 L24.2622564,5.50494359 L24.2298462,5.54371282 L24.2029744,5.58473846 L24.1748718,5.62350769 L24.1467692,5.66658462 L24.1198974,5.70761026 L24.098359,5.75068718 L24.0757949,5.7937641 L24.0530256,5.83909744 L24.0304615,5.88422564 L24.0122051,5.93386667 L23.989641,5.98330256 L23.9734359,6.03089231 L23.9529231,6.08258462 L23.9410256,6.12996923 L23.9258462,6.17961026 L23.9118974,6.22925128 L23.9032821,6.2766359 L23.893641,6.32832821 L23.884,6.3777641 L23.8764103,6.42740513 L23.8710769,6.47909744 L23.8632821,6.52873846 L23.8632821,6.57837949 L23.8591795,6.6257641 L23.8591795,6.72914872 L23.8632821,6.77673846 L23.8655385,6.82822564 Z M6.68789744,10.6992 L6.69548718,10.7338667 L6.69979487,10.7660718 L6.70615385,10.8005333 L6.71271795,10.8329436 L6.71907692,10.8651487 L6.72892308,10.897559 L6.7385641,10.9299692 L6.75148718,10.9601231 L6.76215385,10.9902769 L6.77507692,11.0224821 L6.788,11.0503795 L6.80317949,11.0807385 L6.81507692,11.108841 L6.82902564,11.1367385 L6.8505641,11.1668923 L6.86574359,11.1927385 L6.884,11.220841 L6.90451282,11.2466872 L6.92605128,11.2725333 L6.9465641,11.2983795 L6.97015385,11.3242256 L7.01446154,11.3759179 L7.03702564,11.3974564 L7.1145641,11.4643282 L7.14164103,11.4860718 L7.16851282,11.5053538 L7.19107692,11.5268923 L7.21589744,11.5418667 L7.24174359,11.5590974 L7.27087179,11.5742769 L7.29446154,11.5872 L7.3225641,11.6001231 L7.35169231,11.6130462 L7.3785641,11.6259692 L7.40338462,11.6345846 L7.46492308,11.6540718 L7.49179487,11.6604308 L7.52420513,11.6690462 L7.55210256,11.6756103 L7.58225641,11.6799179 L7.61364103,11.6862769 L7.64584615,11.6885333 L7.67497436,11.692841 L7.70512821,11.692841 L7.73958974,11.6948923 L7.80112821,11.6948923 L7.83989744,11.692841 L7.87128205,11.6885333 L7.90246154,11.6862769 L7.93692308,11.6821744 L7.96912821,11.6756103 L8.00687179,11.673559 L8.04030769,11.6669949 L8.076,11.6563282 L8.10615385,11.6497641 L8.11805128,11.6477128 L8.14389744,11.6411487 L8.15682051,11.636841 L8.16974359,11.6302769 L8.18369231,11.6282256 L8.21487179,11.6150974 L8.25589744,11.6023795 L8.2774359,11.5915077 L8.3,11.5872 L8.32276923,11.5763282 L8.34861538,11.5677128 L8.37323077,11.5590974 L8.40030769,11.5484308 L8.4294359,11.5355077 L8.45733333,11.5268923 L8.51989744,11.4987897 L8.55107692,11.4860718 L8.58882051,11.4708923 L8.62328205,11.4579692 L8.65671795,11.4427897 L8.69774359,11.425559 L8.73979487,11.4103795 L8.77733333,11.3931487 L8.82041026,11.3759179 L8.86471795,11.3586872 L8.90779487,11.3394051 L8.95210256,11.3199179 L8.99846154,11.3006359 L9.02738462,11.2920205 L9.05220513,11.2790974 L9.07928205,11.2704821 L9.10512821,11.2596103 L9.13097436,11.2532513 L9.15558974,11.2446359 L9.22348718,11.2228923 L9.24728205,11.2185846 L9.26451282,11.2142769 L9.28605128,11.2079179 L9.30553846,11.2056615 L9.32482051,11.2036103 L9.34102564,11.2036103 L9.36051282,11.1993026 L9.37651282,11.1993026 L9.39374359,11.1949949 L9.42287179,11.1949949 L9.43805128,11.1993026 L9.44994872,11.1993026 L9.4585641,11.2036103 L9.47251282,11.2036103 L9.48317949,11.2056615 L9.49507692,11.2079179 L9.50266667,11.2122256 L9.51230769,11.2142769 L9.52317949,11.2185846 L9.52748718,11.2228923 L9.53507692,11.2272 L9.5414359,11.2337641 L9.55969231,11.2466872 L9.59210256,11.2790974 L9.60830769,11.2983795 L9.61917949,11.3156103 L9.64605128,11.3523282 L9.65692308,11.3716103 L9.66553846,11.3910974 L9.67497436,11.4148923 L9.68153846,11.4362256 L9.69138462,11.4579692 L9.6934359,11.4838154 L9.7,11.5096615 L9.70307692,11.5355077 L9.70738462,11.5613538 L9.70738462,11.6540718 L9.70307692,11.6669949 L9.70307692,11.692841 L9.7,11.7057641 L9.69671795,11.7186872 L9.6934359,11.7316103 L9.69138462,11.7445333 L9.68810256,11.7531487 L9.68482051,11.7660718 L9.67846154,11.7919179 L9.67497436,11.8005333 L9.66758974,11.8134564 L9.66553846,11.8265846 L9.66,11.8372513 L9.6534359,11.8501744 L9.64605128,11.8587897 L9.64379487,11.8717128 L9.63620513,11.8825846 L9.62758974,11.8955077 L9.61917949,11.9041231 L9.61261538,11.9170462 L9.60830769,11.9277128 L9.59764103,11.9363282 L9.58902564,11.9492513 L9.57815385,11.9621744 L9.56728205,11.9773538 L9.55764103,11.9902769 L9.54471795,12.0032 L9.53179487,12.0161231 L9.52317949,12.0290462 L9.508,12.0419692 L9.49507692,12.0548923 L9.48317949,12.0635077 L9.4694359,12.0764308 L9.45528205,12.0873026 L9.44235897,12.1002256 L9.43271795,12.108841 L9.4185641,12.1174564 L9.40687179,12.1324308 L9.39374359,12.1410462 L9.38082051,12.1496615 L9.36358974,12.1562256 L9.35066667,12.1670974 L9.33774359,12.1757128 L9.32174359,12.1843282 L9.30984615,12.1929436 L9.29261538,12.1993026 L9.28071795,12.2079179 L9.26451282,12.2142769 L9.24933333,12.220841 L9.23866667,12.2296615 L9.17179487,12.2532513 L9.15558974,12.257559 L9.14492308,12.2639179 L9.12769231,12.2661744 L9.11148718,12.2704821 L9.09425641,12.2725333 L9.07928205,12.276841 L9.06512821,12.2790974 L9.04789744,12.2811487 L9.03394872,12.2854564 L9.00482051,12.2854564 L8.98861538,12.2877128 L8.95846154,12.2877128 L8.94225641,12.2854564 L8.91415385,12.2854564 L8.89917949,12.2811487 L8.88625641,12.2811487 L8.87128205,12.2790974 L8.85507692,12.276841 L8.84317949,12.2725333 L8.82697436,12.2704821 L8.81405128,12.2639179 L8.79784615,12.2596103 L8.77958974,12.2532513 L8.76769231,12.2509949 L8.75374359,12.2446359 L8.73979487,12.2382769 L8.72358974,12.2317128 L8.70738462,12.2251487 L8.69446154,12.2142769 L8.61364103,12.1757128 L8.4454359,12.3910974 L8.52748718,12.4579692 L8.54348718,12.4731487 L8.56092308,12.4881231 L8.57487179,12.5010462 L8.59415385,12.5182769 L8.61364103,12.5355077 L8.63189744,12.5547897 L8.65241026,12.5765333 L8.67066667,12.5960205 L8.69446154,12.6196103 L8.71723077,12.6454564 L8.73979487,12.6669949 L8.76133333,12.6907897 L8.78287179,12.7209436 L8.80646154,12.7467897 L8.83353846,12.7789949 L8.84317949,12.7898667 L8.84851282,12.7984821 L8.868,12.8179692 L8.87661538,12.8308923 L8.88625641,12.8438154 L8.89917949,12.8567385 L8.90779487,12.8696615 L8.92071795,12.8825846 L8.9305641,12.897559 L8.94225641,12.9104821 L8.95517949,12.9256615 L8.97261538,12.9428923 L8.98758974,12.9623795 L8.99846154,12.9773538 L9.05651282,13.052841 L9.15025641,13.0032 L9.18471795,12.9882256 L9.21712821,12.9687385 L9.24933333,12.9537641 L9.28071795,12.9320205 L9.31312821,12.9147897 L9.34102564,12.8932513 L9.40687179,12.8567385 L9.43374359,12.8329436 L9.46287179,12.8157128 L9.49507692,12.7921231 L9.52523077,12.7703795 L9.5545641,12.7467897 L9.58246154,12.7252513 L9.6105641,12.7014564 L9.63969231,12.6778667 L9.66758974,12.6540718 L9.69671795,12.6282256 L9.72358974,12.6023795 L9.75271795,12.5765333 L9.77753846,12.5506872 L9.83251282,12.4967385 L9.85610256,12.4731487 L9.88317949,12.4429949 L9.90902564,12.4126359 L9.93487179,12.3845333 L9.96071795,12.3545846 L9.98328205,12.3264821 L10.0091282,12.2940718 L10.0349744,12.2661744 L10.0554872,12.2337641 L10.0803077,12.2056615 L10.1018462,12.1734564 L10.1213333,12.1410462 L10.141641,12.1131487 L10.1621538,12.0807385 L10.178359,12.0485333 L10.1978462,12.0161231 L10.2150769,11.9880205 L10.2290256,11.9558154 L10.2462564,11.9234051 L10.2569231,11.8912 L10.2710769,11.8587897 L10.284,11.8265846 L10.2969231,11.7962256 L10.3067692,11.7640205 L10.3162051,11.7316103 L10.3248205,11.6994051 L10.3346667,11.6626872 L10.3420513,11.6302769 L10.3465641,11.6001231 L10.3529231,11.5677128 L10.3572308,11.5332513 L10.3605128,11.4987897 L10.3627692,11.4665846 L10.3668718,11.4321231 L10.3668718,11.332841 L10.3627692,11.3006359 L10.3627692,11.2704821 L10.3605128,11.2337641 L10.3529231,11.1993026 L10.3346667,11.0936615 L10.3248205,11.0612513 L10.3184615,11.0245333 L10.3067692,10.9945846 L10.2969231,10.9578667 L10.284,10.9277128 L10.2710769,10.8909949 L10.2569231,10.8587897 L10.2429744,10.8263795 L10.2267692,10.7939692 L10.2117949,10.7638154 L10.1912821,10.7316103 L10.1717949,10.7012513 L10.1525128,10.6690462 L10.1330256,10.6409436 L10.1104615,10.6087385 L10.066359,10.5504821 L10.0435897,10.5203282 L10.0177436,10.4901744 L9.99292308,10.4620718 L9.96502564,10.4362256 L9.93815385,10.4060718 L9.90902564,10.3781744 L9.87989744,10.3521231 L9.84748718,10.3242256 L9.81958974,10.2981744 L9.78717949,10.2723282 L9.75271795,10.2423795 L9.73015385,10.2272 L9.70738462,10.2122256 L9.68482051,10.1993026 L9.66328205,10.1818667 L9.63620513,10.1691487 L9.61261538,10.1560205 L9.58902564,10.1474051 L9.564,10.1367385 L9.53815385,10.1281231 L9.51230769,10.1172513 L9.48317949,10.1106872 L9.45528205,10.1043282 L9.42841026,10.0979692 L9.40235897,10.0934564 L9.34430769,10.0870974 L9.31517949,10.0827897 L9.19764103,10.0827897 L9.1654359,10.0870974 L9.13835897,10.0893538 L9.10512821,10.0934564 L9.03928205,10.1043282 L9.00789744,10.1106872 L8.97569231,10.1172513 L8.94225641,10.1281231 L8.91210256,10.1346872 L8.87661538,10.1474051 L8.83887179,10.1560205 L8.80974359,10.1732513 L8.75476923,10.1949949 L8.73015385,10.2079179 L8.70512821,10.220841 L8.64810256,10.2423795 L8.62328205,10.2573538 L8.59415385,10.2682256 L8.54348718,10.2918154 L8.51764103,10.3049436 L8.48974359,10.3176615 L8.43907692,10.3435077 L8.40892308,10.3521231 L8.38205128,10.3652513 L8.3334359,10.3910974 L8.30328205,10.3997128 L8.2774359,10.4126359 L8.22451282,10.4384821 L8.19661538,10.4514051 L8.17179487,10.4620718 L8.11805128,10.4858667 L8.09097436,10.5010462 L8.06615385,10.5096615 L8.01220513,10.5355077 L7.98430769,10.5484308 L7.95846154,10.5570462 L7.93569231,10.5699692 L7.90451282,10.5806359 L7.87969231,10.5892513 L7.85917949,10.5978667 L7.83128205,10.6044308 L7.80420513,10.6150974 L7.78389744,10.6216615 L7.76235897,10.6280205 L7.73958974,10.6323282 L7.716,10.6366359 L7.69548718,10.6409436 L7.67928205,10.6432 L7.65569231,10.6475077 L7.63948718,10.649559 L7.55210256,10.649559 L7.53610256,10.6475077 L7.51989744,10.6475077 L7.50902564,10.6432 L7.49507692,10.6409436 L7.48317949,10.6366359 L7.47128205,10.6323282 L7.45958974,10.6280205 L7.44769231,10.6216615 L7.43476923,10.6150974 L7.42389744,10.6087385 L7.41528205,10.6021744 L7.40338462,10.5958154 L7.38717949,10.5828923 L7.37651282,10.5699692 L7.36030769,10.5547897 L7.35169231,10.5418667 L7.33876923,10.5268923 L7.32810256,10.5096615 L7.31825641,10.4944821 L7.31087179,10.4772513 L7.30225641,10.4577641 L7.29446154,10.4384821 L7.29138462,10.4212513 L7.28707692,10.3974564 L7.28276923,10.3759179 L7.28276923,10.3521231 L7.28071795,10.3307897 L7.28071795,10.2918154 L7.28276923,10.2788923 L7.28276923,10.2530462 L7.28707692,10.2401231 L7.28707692,10.2272 L7.28810256,10.2142769 L7.28810256,10.2013538 L7.29138462,10.1927385 L7.29446154,10.1798154 L7.29876923,10.1668923 L7.30225641,10.1560205 L7.30430769,10.1433026 L7.30738462,10.1324308 L7.31087179,10.121559 L7.31517949,10.1086359 L7.31825641,10.0979692 L7.32461538,10.0870974 L7.32810256,10.0762256 L7.3334359,10.0633026 L7.33876923,10.0546872 L7.34533333,10.0417641 L7.35169231,10.0310974 L7.35394872,10.0224821 L7.36030769,10.009559 L7.36789744,9.99889231 L7.37323077,9.99027692 L7.3785641,9.97714872 L7.38717949,9.96648205 L7.396,9.95786667 L7.40112821,9.94904615 L7.41323077,9.93837949 L7.43148718,9.91253333 L7.47128205,9.86945641 L7.48974359,9.84996923 L7.51128205,9.83068718 L7.5305641,9.81345641 L7.54882051,9.79396923 L7.57261538,9.78104615 L7.59415385,9.76607179 L7.61364103,9.75294359 L7.63517949,9.74022564 L7.67928205,9.72073846 L7.70307692,9.70986667 L7.72564103,9.70555897 L7.75148718,9.6992 L7.77528205,9.6926359 L7.79887179,9.68832821 L7.82369231,9.68196923 L7.84953846,9.68196923 L7.87435897,9.67971282 L7.92830769,9.67971282 L7.95292308,9.68196923 L7.98225641,9.68627692 L8.01220513,9.68832821 L8.04030769,9.69489231 L8.06820513,9.70125128 L8.09753846,9.70781538 L8.12871795,9.71848205 L8.15989744,9.72709744 L8.24728205,9.75950769 L8.396,9.57202051 L7.90451282,8.94473846 L7.82902564,8.97714872 L7.81179487,8.98802051 L7.79558974,8.99437949 L7.7654359,9.00525128 L7.7494359,9.01591795 L7.73220513,9.02248205 L7.716,9.02884103 L7.70307692,9.03745641 L7.68584615,9.04402051 L7.67169231,9.05468718 L7.65569231,9.06125128 L7.6425641,9.06761026 L7.6265641,9.07622564 L7.61364103,9.08278974 L7.59846154,9.09140513 L7.58225641,9.10002051 L7.56830769,9.1086359 L7.55538462,9.11725128 L7.53917949,9.12586667 L7.52728205,9.13448205 L7.51128205,9.14104615 L7.49938462,9.14966154 L7.4854359,9.16032821 L7.47128205,9.1646359 L7.45958974,9.17550769 L7.4454359,9.18617436 L7.43148718,9.19704615 L7.41958974,9.20135385 L7.40338462,9.20996923 L7.39169231,9.22084103 L7.3785641,9.23150769 L7.35394872,9.24873846 L7.32810256,9.26822564 L7.30225641,9.28750769 L7.27723077,9.30678974 L7.25466667,9.32627692 L7.22882051,9.34986667 L7.20728205,9.37161026 L7.18574359,9.39109744 L7.15764103,9.41243077 L7.13610256,9.43622564 L7.11682051,9.46207179 L7.09405128,9.48361026 L7.07251282,9.50945641 L7.05425641,9.53099487 L7.03046154,9.55684103 L7.01015385,9.58268718 L6.98861538,9.61078974 L6.97015385,9.63889231 L6.95087179,9.66678974 L6.89158974,9.75294359 L6.85917949,9.8112 L6.84420513,9.83930256 L6.82697436,9.86945641 L6.81507692,9.89735385 L6.80317949,9.9297641 L6.79251282,9.95786667 L6.77733333,9.98802051 L6.7654359,10.0181744 L6.75353846,10.0483282 L6.74389744,10.0807385 L6.73528205,10.1106872 L6.72461538,10.1410462 L6.716,10.1732513 L6.7094359,10.2056615 L6.70287179,10.2358154 L6.69876923,10.2682256 L6.69548718,10.3004308 L6.68789744,10.332841 L6.68564103,10.3652513 L6.68133333,10.3974564 L6.68133333,10.4298667 L6.67928205,10.4620718 L6.67928205,10.5958154 L6.68564103,10.6667897 L6.68789744,10.6992 Z M30.4661538,9.36073846 L30.0146667,12.4817641 L30.5178462,13.0571487 L33.4694359,10.4901744 L32.9933333,9.96217436 L31.2862564,11.5289436 L31.7258462,8.48586667 L31.172,7.84545641 L28.2171282,10.4126359 L28.6977436,10.9687385 L30.4661538,9.36073846 Z M10.6837949,30.1072 L10.9789744,29.8183795 L9.41548718,28.1997128 L9.12235897,28.4842256 L9.68153846,29.0036103 L7.8614359,30.7644308 L8.38512821,31.3096615 L10.2085128,29.5533538 L10.6837949,30.1072 Z M7.81179487,25.2922256 L7.772,25.2167385 L7.65774359,24.8136615 L5.76112821,25.4278154 C5.58758974,25.4538667 5.43025641,25.4214564 5.29015385,25.3330462 C5.14902564,25.2425846 5.05302564,25.1176615 5.00235897,24.9623795 C4.94533333,24.7986872 4.95702564,24.6347897 5.02841026,24.4774564 C5.09302564,24.3180718 5.20933333,24.2103795 5.36564103,24.1586872 L7.24728205,23.5463795 L7.16420513,23.3804308 L7.00461538,22.7984821 L5.05302564,23.4967385 C4.80851282,23.6109949 4.64892308,23.8136615 4.56482051,24.1067897 C4.48953846,24.3783795 4.49589744,24.6542769 4.58964103,24.9367385 C4.68892308,25.2534564 4.86676923,25.4992 5.11887179,25.6737641 C5.38717949,25.8589949 5.66082051,25.9022769 5.94,25.8136615 L7.81179487,25.2922256 Z M6.79989744,21.2466872 L3.88379487,21.3500718 C3.77384615,21.3437128 3.68010256,21.3221744 3.61015385,21.2854564 C3.51846154,21.2423795 3.46779487,21.1712 3.46471795,21.0749949 C3.42369231,21.0922256 3.38820513,21.1028923 3.3494359,21.1094564 C3.31497436,21.1180718 3.27928205,21.1180718 3.25241026,21.1180718 C3.26205128,21.3931487 3.36338462,21.6259692 3.55846154,21.8179692 C3.7545641,22.0118154 3.99066667,22.1045333 4.26328205,22.0959179 L6.82697436,22.0054564 L6.79989744,21.2466872 Z M7.95723077,26.8678154 C8.04789744,26.8181744 8.14923077,26.8138667 8.26348718,26.8614564 C8.37323077,26.9108923 8.46061538,26.9863795 8.51764103,27.0897641 C8.65671795,27.3332513 8.62861538,27.5638154 8.4294359,27.7857641 L8.46923077,27.8633026 L8.96605128,27.716841 C8.96276923,27.5724308 8.9465641,27.4432 8.91764103,27.3203282 C8.8905641,27.1974564 8.84317949,27.0834051 8.77733333,26.9712 C8.63723077,26.7297641 8.44871795,26.5638154 8.20297436,26.4733538 C7.94328205,26.3785846 7.69323077,26.3978667 7.45958974,26.5336615 C7.25261538,26.6499692 7.12974359,26.8526359 7.092,27.1371487 C7.08235897,27.1974564 7.07907692,27.4432 7.08235897,27.8700718 C7.08666667,28.1242256 7.03702564,28.281559 6.94,28.3355077 C6.83866667,28.393559 6.72892308,28.4044308 6.60379487,28.3658667 C6.48215385,28.3268923 6.38717949,28.2491487 6.32153846,28.1414564 C6.24174359,28.0013538 6.20605128,27.852841 6.21466667,27.7018667 C6.23087179,27.548841 6.29671795,27.4239179 6.41528205,27.3246359 L6.37220513,27.2405333 C6.2934359,27.2858667 6.17589744,27.3332513 6.02307692,27.3828923 C5.97548718,27.3978667 5.90451282,27.4194051 5.80953846,27.4497641 C5.83230769,27.7449436 5.91948718,28.0294564 6.07784615,28.3010462 C6.23210256,28.5660718 6.43784615,28.7363282 6.68789744,28.8052513 C6.95415385,28.8786872 7.23435897,28.8313026 7.52728205,28.6630974 C7.70307692,28.5617641 7.80112821,28.3677128 7.82041026,28.0877128 C7.81179487,27.8460718 7.79887179,27.6027897 7.78923077,27.3613538 C7.78389744,27.1024821 7.83989744,26.9389949 7.95723077,26.8678154 L7.95723077,26.8678154 Z M4.44748718,18.1716103 L5.64687179,17.2858667 L6.84728205,18.1716103 L6.37753846,16.7578667 L7.59210256,15.8891487 L6.09733333,15.8977641 L5.64687179,14.4795077 L5.19538462,15.8977641 L3.70492308,15.8891487 L4.92174359,16.7533538 L4.44748718,18.1716103 Z M25.8290256,16.5810462 L24.0208205,24.0401231 L27.9564103,24.0401231 L25.989641,17.1523282 L25.8290256,16.5810462 Z M13.9155897,17.1523282 L11.9457436,24.0401231 L15.882359,24.0401231 L14.0772308,16.5810462 L13.9155897,17.1523282 Z" id="Fill-5" fill="#004275" mask="url(#mask-2)"></path>
                </g>
            </g>
        </g>
    </g>
</svg>