<?xml version="1.0" encoding="utf-8"?>
<!-- Generator: Adobe Illustrator 19.0.0, SVG Export Plug-In . SVG Version: 6.00 Build 0)  -->
<!DOCTYPE svg PUBLIC "-//W3C//DTD SVG 1.1//EN" "http://www.w3.org/Graphics/SVG/1.1/DTD/svg11.dtd">
<svg version="1.1" id="Layer_1" xmlns="http://www.w3.org/2000/svg" xmlns:xlink="http://www.w3.org/1999/xlink" x="0px" y="0px"
	 width="17.9px" height="15.6px" viewBox="0 0 17.9 15.6" style="enable-background:new 0 0 17.9 15.6;" xml:space="preserve">
<g id="XMLID_28_">
	<path id="XMLID_29_" style="fill:#065EA7;" d="M8.1,5.7C8.1,6.4,7.5,7,6.8,7H1.4C0.6,7,0,6.4,0,5.7V1.6c0-0.7,0.6-1.4,1.4-1.4h5.4
		c0.7,0,1.4,0.6,1.4,1.4V5.7z M8.1,13.8c0,0.7-0.6,1.4-1.4,1.4H1.4c-0.7,0-1.4-0.6-1.4-1.4V9.7C0,9,0.6,8.4,1.4,8.4h5.4
		c0.7,0,1.4,0.6,1.4,1.4V13.8z M17.6,5.7C17.6,6.4,17,7,16.3,7h-5.4c-0.7,0-1.4-0.6-1.4-1.4V1.6c0-0.7,0.6-1.4,1.4-1.4h5.4
		c0.7,0,1.4,0.6,1.4,1.4V5.7z M17.6,13.8c0,0.7-0.6,1.4-1.4,1.4h-5.4c-0.7,0-1.4-0.6-1.4-1.4V9.7c0-0.7,0.6-1.4,1.4-1.4h5.4
		c0.7,0,1.4,0.6,1.4,1.4V13.8z"/>
</g>
</svg>
