<?xml version="1.0" encoding="utf-8"?>
<!-- Generator: Adobe Illustrator 19.0.0, SVG Export Plug-In . SVG Version: 6.00 Build 0)  -->
<!DOCTYPE svg PUBLIC "-//W3C//DTD SVG 1.1//EN" "http://www.w3.org/Graphics/SVG/1.1/DTD/svg11.dtd">
<svg version="1.1" id="Layer_1" xmlns="http://www.w3.org/2000/svg" xmlns:xlink="http://www.w3.org/1999/xlink" x="0px" y="0px"
	 width="19.7px" height="15.6px" viewBox="0 0 19.7 15.6" style="enable-background:new 0 0 19.7 15.6;" xml:space="preserve">
<g id="XMLID_41_">
	<path id="XMLID_42_" style="fill:#010101;" d="M2,4.2c-1.1,0-2-0.9-2-2s0.9-2,2-2s2,0.9,2,2S3.2,4.2,2,4.2z M2,9.6
		c-1.1,0-2-0.9-2-2s0.9-2,2-2s2,0.9,2,2S3.2,9.6,2,9.6z M2,15c-1.1,0-2-0.9-2-2s0.9-2,2-2s2,0.9,2,2S3.2,15,2,15z M19,3.1
		c0,0.2-0.2,0.3-0.3,0.3H5.8c-0.2,0-0.3-0.2-0.3-0.3v-2c0-0.2,0.2-0.3,0.3-0.3h12.9c0.2,0,0.3,0.2,0.3,0.3V3.1z M19,8.6
		c0,0.2-0.2,0.3-0.3,0.3H5.8c-0.2,0-0.3-0.2-0.3-0.3v-2c0-0.2,0.2-0.3,0.3-0.3h12.9c0.2,0,0.3,0.2,0.3,0.3V8.6z M19,14
		c0,0.2-0.2,0.3-0.3,0.3H5.8c-0.2,0-0.3-0.2-0.3-0.3v-2c0-0.2,0.2-0.3,0.3-0.3h12.9c0.2,0,0.3,0.2,0.3,0.3V14z"/>
</g>
</svg>
